<svg xmlns="http://www.w3.org/2000/svg" viewBox="0 0 64 64" role="img" aria-label="Clinic favicon">
  <defs>
    <linearGradient id="brand" x1="10" y1="6" x2="54" y2="58" gradientUnits="userSpaceOnUse">
      <stop offset="0" stop-color="#1D9E75" />
      <stop offset="1" stop-color="#0F6E56" />
    </linearGradient>
  </defs>
  <rect width="64" height="64" rx="16" fill="url(#brand)" />
  <path
    d="M28 15h8c1.7 0 3 1.3 3 3v11h11c1.7 0 3 1.3 3 3v8c0 1.7-1.3 3-3 3H39v11c0 1.7-1.3 3-3 3h-8c-1.7 0-3-1.3-3-3V43H14c-1.7 0-3-1.3-3-3v-8c0-1.7 1.3-3 3-3h11V18c0-1.7 1.3-3 3-3Z"
    fill="#FFFFFF"
  />
  <path
    d="M17 36h30M32 21v30"
    stroke="#E8F8F2"
    stroke-width="3"
    stroke-linecap="round"
    opacity=".55"
  />
</svg>
